<?xml version="1.0" encoding="utf-8"?>
<!-- Generator: Adobe Illustrator 16.0.0, SVG Export Plug-In . SVG Version: 6.00 Build 0)  -->
<!DOCTYPE svg PUBLIC "-//W3C//DTD SVG 1.1//EN" "http://www.w3.org/Graphics/SVG/1.1/DTD/svg11.dtd">
<svg version="1.1" id="Layer_1" xmlns="http://www.w3.org/2000/svg" xmlns:xlink="http://www.w3.org/1999/xlink" x="0px" y="0px"
	 width="393.366px" height="159.656px" viewBox="13 17.293 393.366 159.656" enable-background="new 13 17.293 393.366 159.656"
	 xml:space="preserve">
<rect x="22.259" y="105.422" fill="#0075B2" width="384.107" height="2.567"/>
<rect x="93.922" y="17.293" fill="#0075B2" width="88.678" height="88.678"/>
<path fill="#9ABB50" d="M85.37,44.511l-8.48,3.417C71.185,41.095,63.199,37.68,52.931,37.68c-7.782,0-14.12,2.248-19.021,6.743
	c-4.901,4.495-7.353,10.218-7.353,17.165c0,7.181,2.424,12.976,7.275,17.384c4.848,4.409,11.396,6.612,19.642,6.612
	c9.958,0,17.789-3.472,23.494-10.421l8.012,4.993c-4.045,5.312-8.623,9.152-13.729,11.516c-5.11,2.365-11.217,3.546-18.321,3.546
	c-9.958,0-18.232-2.803-24.817-8.408c-7.52-6.421-11.28-14.829-11.28-25.221c0-10.217,3.812-18.566,11.436-25.047
	c6.638-5.663,14.858-8.495,24.662-8.495C67.037,28.046,77.849,33.535,85.37,44.511z"/>
<path fill="#9ABB50" d="M236.174,30.061c5.756,0,10.32,1.795,13.689,5.386c3.371,3.591,5.06,8.394,5.06,14.407
	c0,6.306-1.75,11.123-5.252,14.45c-3.5,3.328-8.596,4.992-15.286,4.992h-33.53v24.171h-9.334V30.061H236.174z M234.539,59.836
	c7.21,0,10.814-3.268,10.814-9.805c0-7.008-3.812-10.512-11.438-10.512h-33.062v20.317H234.539z"/>
<path fill="#9ABB50" d="M324.625,93.466h-58.968V30.061h56.788v9.458h-47.454v16.289h32.984v9.458h-32.984v18.742h49.634V93.466
	L324.625,93.466z"/>
<g>
	<path fill="#0075B2" d="M97.02,120.682h13.735c3.82,0,6.782,0.957,8.757,2.719c1.674,1.494,2.575,3.601,2.575,6.127v0.078
		c0,4.328-2.618,7.047-6.438,8.311l7.34,9.575h-7.727l-6.438-8.579h-0.085h-5.108v8.579h-6.61L97.02,120.682L97.02,120.682z
		 M110.326,133.702c3.219,0,5.064-1.532,5.064-3.791v-0.077c0-2.527-1.975-3.83-5.193-3.83h-6.567v7.698H110.326z"/>
	<path fill="#0075B2" d="M128.22,120.682h22.664v5.246h-16.097v5.438h14.165v5.247h-14.165v5.63h16.311v5.247H128.22V120.682z"/>
	<path fill="#0075B2" d="M157.446,120.682h6.61v26.81h-6.61V120.682z"/>
	<path fill="#0075B2" d="M171.738,120.682h6.095l14.079,16.506v-16.506h6.524v26.81h-5.623l-14.551-17.043v17.043h-6.524V120.682z"
		/>
	<path fill="#0075B2" d="M203.239,120.682h7.297l7.854,18.881l7.854-18.881h7.125l-12.146,27h-5.838L203.239,120.682z"/>
	<path fill="#0075B2" d="M238.173,120.682h22.663v5.246H244.74v5.438h14.164v5.247H244.74v5.63h16.311v5.247h-22.878V120.682
		L238.173,120.682z"/>
	<path fill="#0075B2" d="M267.1,120.682h6.096l14.078,16.506v-16.506h6.524v26.81h-5.623l-14.551-17.043v17.043H267.1V120.682z"/>
	<path fill="#0075B2" d="M308.172,126.119h-9.143v-5.438h24.896v5.438h-9.143v21.371h-6.61V126.119z"/>
	<path fill="#0075B2" d="M329.458,120.682h6.61v26.81h-6.61V120.682z"/>
	<path fill="#0075B2" d="M343.749,120.682h6.095l14.079,16.506v-16.506h6.524v26.81h-5.623l-14.551-17.043v17.043h-6.524V120.682
		L343.749,120.682z"/>
	<path fill="#0075B2" d="M376.495,134.162v-0.077c0-7.621,6.652-13.864,15.752-13.864c5.408,0,8.671,1.303,11.804,3.678l-4.163,4.48
		c-2.317-1.724-4.378-2.72-7.854-2.72c-4.809,0-8.628,3.792-8.628,8.35v0.076c0,4.901,3.776,8.503,9.1,8.503
		c2.403,0,4.55-0.536,6.225-1.607v-3.83h-6.653v-5.094h13.049v11.643c-3.09,2.337-7.34,4.252-12.834,4.252
		C382.933,147.95,376.495,142.09,376.495,134.162z"/>
</g>
<g>
	<path fill="#A8AAAD" d="M96.938,157.967h8.545c4.989,0,8.007,2.641,8.007,6.451v0.055c0,4.317-3.765,6.558-8.455,6.558h-3.495
		v5.598h-4.602V157.967z M105.185,167.377c2.301,0,3.645-1.227,3.645-2.825v-0.054c0-1.84-1.434-2.826-3.734-2.826h-3.555v5.705
		H105.185z"/>
	<path fill="#A8AAAD" d="M116.657,168.63v-10.663h4.602v10.557c0,3.039,1.702,4.611,4.511,4.611s4.512-1.52,4.512-4.479v-10.689
		h4.601v10.529c0,5.65-3.555,8.424-9.172,8.424S116.657,174.121,116.657,168.63z"/>
	<path fill="#A8AAAD" d="M139.662,157.967h9.71c2.391,0,4.272,0.588,5.468,1.653c0.956,0.853,1.434,1.894,1.434,3.172v0.054
		c0,2.105-1.255,3.278-2.748,4.024c2.42,0.827,3.913,2.079,3.913,4.585v0.054c0,3.412-3.106,5.118-7.827,5.118h-9.949
		L139.662,157.967L139.662,157.967z M148.386,165.511c2.032,0,3.316-0.586,3.316-1.973v-0.054c0-1.227-1.075-1.92-3.018-1.92h-4.541
		v3.945L148.386,165.511L148.386,165.511z M149.611,173.027c2.031,0,3.257-0.639,3.257-2.025v-0.053
		c0-1.254-1.046-2.026-3.406-2.026h-5.318v4.104H149.611z"/>
	<path fill="#A8AAAD" d="M161.322,157.967h4.602v14.928h10.427v3.732h-15.028v-18.66H161.322z"/>
	<path fill="#A8AAAD" d="M180.114,157.967h4.602v18.66h-4.602V157.967z"/>
	<path fill="#A8AAAD" d="M189.107,167.352v-0.055c0-5.305,4.481-9.648,10.905-9.648c3.943,0,6.304,1.172,8.246,2.879l-2.928,3.012
		c-1.613-1.307-3.257-2.105-5.349-2.105c-3.525,0-6.064,2.612-6.064,5.812v0.053c0,3.199,2.479,5.864,6.064,5.864
		c2.391,0,3.854-0.853,5.498-2.187l2.928,2.64c-2.151,2.053-4.541,3.333-8.575,3.333
		C193.679,176.947,189.107,172.708,189.107,167.352z"/>
	<path fill="#A8AAAD" d="M221.225,157.967h15.774v3.652h-11.203v3.785h9.858v3.652h-9.858v3.918h11.353v3.651h-15.924V157.967z"/>
	<path fill="#A8AAAD" d="M241.332,157.967h8.156c6.572,0,11.113,4.025,11.113,9.277v0.053c0,5.252-4.541,9.33-11.113,9.33h-8.156
		V157.967L241.332,157.967z M249.488,172.922c3.765,0,6.304-2.266,6.304-5.57v-0.055c0-3.306-2.539-5.625-6.304-5.625h-3.557v11.25
		H249.488z"/>
	<path fill="#A8AAAD" d="M264.456,168.63v-10.663h4.603v10.557c0,3.039,1.702,4.611,4.51,4.611c2.81,0,4.513-1.52,4.513-4.479
		v-10.689h4.603v10.529c0,5.65-3.557,8.424-9.174,8.424S264.456,174.121,264.456,168.63z"/>
	<path fill="#A8AAAD" d="M286.534,167.352v-0.055c0-5.305,4.481-9.648,10.905-9.648c3.943,0,6.304,1.172,8.246,2.879l-2.929,3.012
		c-1.612-1.307-3.257-2.105-5.348-2.105c-3.525,0-6.065,2.612-6.065,5.812v0.053c0,3.199,2.479,5.864,6.065,5.864
		c2.39,0,3.854-0.853,5.497-2.187l2.928,2.64c-2.15,2.053-4.541,3.333-8.574,3.333C291.105,176.947,286.534,172.708,286.534,167.352
		z"/>
	<path fill="#A8AAAD" d="M316.77,157.834h4.243l8.963,18.793h-4.811l-1.912-4.186h-8.844l-1.912,4.186h-4.69L316.77,157.834z
		 M321.61,168.816l-2.779-6.051l-2.778,6.051H321.61z"/>
	<path fill="#A8AAAD" d="M335.471,161.752h-6.363v-3.785h17.328v3.785h-6.363v14.875h-4.602V161.752L335.471,161.752z"/>
	<path fill="#A8AAAD" d="M350.259,157.967h4.602v18.66h-4.602V157.967z"/>
	<path fill="#A8AAAD" d="M359.251,167.352v-0.055c0-5.305,4.691-9.648,11.146-9.648c6.453,0,11.084,4.291,11.084,9.597v0.053
		c0,5.306-4.69,9.65-11.145,9.65C363.882,176.947,359.251,172.655,359.251,167.352z M376.67,167.352v-0.055
		c0-3.199-2.63-5.863-6.334-5.863c-3.705,0-6.273,2.611-6.273,5.812v0.053c0,3.199,2.629,5.864,6.334,5.864
		C374.101,173.162,376.67,170.549,376.67,167.352z"/>
	<path fill="#A8AAAD" d="M385.663,157.967h4.242l9.8,11.489v-11.489h4.541v18.66h-3.914l-10.128-11.861v11.861h-4.541V157.967z"/>
</g>
<path fill="#FFFFFF" d="M170.924,93.466h-10.86l-15.242-24.171h-28.431v24.171h-9.335V30.061h44.42
	c5.912,0,10.554,1.795,13.925,5.386c3.371,3.591,5.056,8.451,5.056,14.581c0,5.374-1.374,9.693-4.122,12.963
	c-2.542,3.036-6.043,4.961-10.504,5.779L170.924,93.466z M150.075,59.836c7.208,0,10.814-3.268,10.814-9.805
	c0-7.008-3.889-10.512-11.669-10.512h-32.829v20.317H150.075z"/>
</svg>
